<?xml version="1.0" encoding="utf-8" standalone="no"?>
<!DOCTYPE svg PUBLIC "-//W3C//DTD SVG 1.1//EN"
  "http://www.w3.org/Graphics/SVG/1.1/DTD/svg11.dtd">
<!-- Created with matplotlib (https://matplotlib.org/) -->
<svg height="288pt" version="1.1" viewBox="0 0 432 288" width="432pt" xmlns="http://www.w3.org/2000/svg" xmlns:xlink="http://www.w3.org/1999/xlink">
 <defs>
  <style type="text/css">
*{stroke-linecap:butt;stroke-linejoin:round;}
  </style>
 </defs>
 <g id="figure_1">
  <g id="patch_1">
   <path d="M 0 288 
L 432 288 
L 432 0 
L 0 0 
z
" style="fill:#ffffff;"/>
  </g>
  <g id="axes_1">
   <g id="patch_2">
    <path d="M 54 252 
L 388.8 252 
L 388.8 34.56 
L 54 34.56 
z
" style="fill:#ffffff;"/>
   </g>
   <g id="matplotlib.axis_1">
    <g id="xtick_1">
     <g id="line2d_1">
      <defs>
       <path d="M 0 0 
L 0 3.5 
" id="m81d56379ab" style="stroke:#000000;stroke-width:0.8;"/>
      </defs>
      <g>
       <use style="stroke:#000000;stroke-width:0.8;" x="63.006679" xlink:href="#m81d56379ab" y="252"/>
      </g>
     </g>
     <g id="text_1">
      <!-- 0 -->
      <defs>
       <path d="M 31.78125 66.40625 
Q 24.171875 66.40625 20.328125 58.90625 
Q 16.5 51.421875 16.5 36.375 
Q 16.5 21.390625 20.328125 13.890625 
Q 24.171875 6.390625 31.78125 6.390625 
Q 39.453125 6.390625 43.28125 13.890625 
Q 47.125 21.390625 47.125 36.375 
Q 47.125 51.421875 43.28125 58.90625 
Q 39.453125 66.40625 31.78125 66.40625 
z
M 31.78125 74.21875 
Q 44.046875 74.21875 50.515625 64.515625 
Q 56.984375 54.828125 56.984375 36.375 
Q 56.984375 17.96875 50.515625 8.265625 
Q 44.046875 -1.421875 31.78125 -1.421875 
Q 19.53125 -1.421875 13.0625 8.265625 
Q 6.59375 17.96875 6.59375 36.375 
Q 6.59375 54.828125 13.0625 64.515625 
Q 19.53125 74.21875 31.78125 74.21875 
z
" id="DejaVuSans-48"/>
      </defs>
      <g transform="translate(59.825429 266.598437)scale(0.1 -0.1)">
       <use xlink:href="#DejaVuSans-48"/>
      </g>
     </g>
    </g>
    <g id="xtick_2">
     <g id="line2d_2">
      <g>
       <use style="stroke:#000000;stroke-width:0.8;" x="125.121707" xlink:href="#m81d56379ab" y="252"/>
      </g>
     </g>
     <g id="text_2">
      <!-- 10 -->
      <defs>
       <path d="M 12.40625 8.296875 
L 28.515625 8.296875 
L 28.515625 63.921875 
L 10.984375 60.40625 
L 10.984375 69.390625 
L 28.421875 72.90625 
L 38.28125 72.90625 
L 38.28125 8.296875 
L 54.390625 8.296875 
L 54.390625 0 
L 12.40625 0 
z
" id="DejaVuSans-49"/>
      </defs>
      <g transform="translate(118.759207 266.598437)scale(0.1 -0.1)">
       <use xlink:href="#DejaVuSans-49"/>
       <use x="63.623047" xlink:href="#DejaVuSans-48"/>
      </g>
     </g>
    </g>
    <g id="xtick_3">
     <g id="line2d_3">
      <g>
       <use style="stroke:#000000;stroke-width:0.8;" x="187.236735" xlink:href="#m81d56379ab" y="252"/>
      </g>
     </g>
     <g id="text_3">
      <!-- 20 -->
      <defs>
       <path d="M 19.1875 8.296875 
L 53.609375 8.296875 
L 53.609375 0 
L 7.328125 0 
L 7.328125 8.296875 
Q 12.9375 14.109375 22.625 23.890625 
Q 32.328125 33.6875 34.8125 36.53125 
Q 39.546875 41.84375 41.421875 45.53125 
Q 43.3125 49.21875 43.3125 52.78125 
Q 43.3125 58.59375 39.234375 62.25 
Q 35.15625 65.921875 28.609375 65.921875 
Q 23.96875 65.921875 18.8125 64.3125 
Q 13.671875 62.703125 7.8125 59.421875 
L 7.8125 69.390625 
Q 13.765625 71.78125 18.9375 73 
Q 24.125 74.21875 28.421875 74.21875 
Q 39.75 74.21875 46.484375 68.546875 
Q 53.21875 62.890625 53.21875 53.421875 
Q 53.21875 48.921875 51.53125 44.890625 
Q 49.859375 40.875 45.40625 35.40625 
Q 44.1875 33.984375 37.640625 27.21875 
Q 31.109375 20.453125 19.1875 8.296875 
z
" id="DejaVuSans-50"/>
      </defs>
      <g transform="translate(180.874235 266.598437)scale(0.1 -0.1)">
       <use xlink:href="#DejaVuSans-50"/>
       <use x="63.623047" xlink:href="#DejaVuSans-48"/>
      </g>
     </g>
    </g>
    <g id="xtick_4">
     <g id="line2d_4">
      <g>
       <use style="stroke:#000000;stroke-width:0.8;" x="249.351763" xlink:href="#m81d56379ab" y="252"/>
      </g>
     </g>
     <g id="text_4">
      <!-- 30 -->
      <defs>
       <path d="M 40.578125 39.3125 
Q 47.65625 37.796875 51.625 33 
Q 55.609375 28.21875 55.609375 21.1875 
Q 55.609375 10.40625 48.1875 4.484375 
Q 40.765625 -1.421875 27.09375 -1.421875 
Q 22.515625 -1.421875 17.65625 -0.515625 
Q 12.796875 0.390625 7.625 2.203125 
L 7.625 11.71875 
Q 11.71875 9.328125 16.59375 8.109375 
Q 21.484375 6.890625 26.8125 6.890625 
Q 36.078125 6.890625 40.9375 10.546875 
Q 45.796875 14.203125 45.796875 21.1875 
Q 45.796875 27.640625 41.28125 31.265625 
Q 36.765625 34.90625 28.71875 34.90625 
L 20.21875 34.90625 
L 20.21875 43.015625 
L 29.109375 43.015625 
Q 36.375 43.015625 40.234375 45.921875 
Q 44.09375 48.828125 44.09375 54.296875 
Q 44.09375 59.90625 40.109375 62.90625 
Q 36.140625 65.921875 28.71875 65.921875 
Q 24.65625 65.921875 20.015625 65.03125 
Q 15.375 64.15625 9.8125 62.3125 
L 9.8125 71.09375 
Q 15.4375 72.65625 20.34375 73.4375 
Q 25.25 74.21875 29.59375 74.21875 
Q 40.828125 74.21875 47.359375 69.109375 
Q 53.90625 64.015625 53.90625 55.328125 
Q 53.90625 49.265625 50.4375 45.09375 
Q 46.96875 40.921875 40.578125 39.3125 
z
" id="DejaVuSans-51"/>
      </defs>
      <g transform="translate(242.989263 266.598437)scale(0.1 -0.1)">
       <use xlink:href="#DejaVuSans-51"/>
       <use x="63.623047" xlink:href="#DejaVuSans-48"/>
      </g>
     </g>
    </g>
    <g id="xtick_5">
     <g id="line2d_5">
      <g>
       <use style="stroke:#000000;stroke-width:0.8;" x="311.46679" xlink:href="#m81d56379ab" y="252"/>
      </g>
     </g>
     <g id="text_5">
      <!-- 40 -->
      <defs>
       <path d="M 37.796875 64.3125 
L 12.890625 25.390625 
L 37.796875 25.390625 
z
M 35.203125 72.90625 
L 47.609375 72.90625 
L 47.609375 25.390625 
L 58.015625 25.390625 
L 58.015625 17.1875 
L 47.609375 17.1875 
L 47.609375 0 
L 37.796875 0 
L 37.796875 17.1875 
L 4.890625 17.1875 
L 4.890625 26.703125 
z
" id="DejaVuSans-52"/>
      </defs>
      <g transform="translate(305.10429 266.598437)scale(0.1 -0.1)">
       <use xlink:href="#DejaVuSans-52"/>
       <use x="63.623047" xlink:href="#DejaVuSans-48"/>
      </g>
     </g>
    </g>
    <g id="xtick_6">
     <g id="line2d_6">
      <g>
       <use style="stroke:#000000;stroke-width:0.8;" x="373.581818" xlink:href="#m81d56379ab" y="252"/>
      </g>
     </g>
     <g id="text_6">
      <!-- 50 -->
      <defs>
       <path d="M 10.796875 72.90625 
L 49.515625 72.90625 
L 49.515625 64.59375 
L 19.828125 64.59375 
L 19.828125 46.734375 
Q 21.96875 47.46875 24.109375 47.828125 
Q 26.265625 48.1875 28.421875 48.1875 
Q 40.625 48.1875 47.75 41.5 
Q 54.890625 34.8125 54.890625 23.390625 
Q 54.890625 11.625 47.5625 5.09375 
Q 40.234375 -1.421875 26.90625 -1.421875 
Q 22.3125 -1.421875 17.546875 -0.640625 
Q 12.796875 0.140625 7.71875 1.703125 
L 7.71875 11.625 
Q 12.109375 9.234375 16.796875 8.0625 
Q 21.484375 6.890625 26.703125 6.890625 
Q 35.15625 6.890625 40.078125 11.328125 
Q 45.015625 15.765625 45.015625 23.390625 
Q 45.015625 31 40.078125 35.4375 
Q 35.15625 39.890625 26.703125 39.890625 
Q 22.75 39.890625 18.8125 39.015625 
Q 14.890625 38.140625 10.796875 36.28125 
z
" id="DejaVuSans-53"/>
      </defs>
      <g transform="translate(367.219318 266.598437)scale(0.1 -0.1)">
       <use xlink:href="#DejaVuSans-53"/>
       <use x="63.623047" xlink:href="#DejaVuSans-48"/>
      </g>
     </g>
    </g>
    <g id="text_7">
     <!-- Image IDs -->
     <defs>
      <path d="M 9.8125 72.90625 
L 19.671875 72.90625 
L 19.671875 0 
L 9.8125 0 
z
" id="DejaVuSans-73"/>
      <path d="M 52 44.1875 
Q 55.375 50.25 60.0625 53.125 
Q 64.75 56 71.09375 56 
Q 79.640625 56 84.28125 50.015625 
Q 88.921875 44.046875 88.921875 33.015625 
L 88.921875 0 
L 79.890625 0 
L 79.890625 32.71875 
Q 79.890625 40.578125 77.09375 44.375 
Q 74.3125 48.1875 68.609375 48.1875 
Q 61.625 48.1875 57.5625 43.546875 
Q 53.515625 38.921875 53.515625 30.90625 
L 53.515625 0 
L 44.484375 0 
L 44.484375 32.71875 
Q 44.484375 40.625 41.703125 44.40625 
Q 38.921875 48.1875 33.109375 48.1875 
Q 26.21875 48.1875 22.15625 43.53125 
Q 18.109375 38.875 18.109375 30.90625 
L 18.109375 0 
L 9.078125 0 
L 9.078125 54.6875 
L 18.109375 54.6875 
L 18.109375 46.1875 
Q 21.1875 51.21875 25.484375 53.609375 
Q 29.78125 56 35.6875 56 
Q 41.65625 56 45.828125 52.96875 
Q 50 49.953125 52 44.1875 
z
" id="DejaVuSans-109"/>
      <path d="M 34.28125 27.484375 
Q 23.390625 27.484375 19.1875 25 
Q 14.984375 22.515625 14.984375 16.5 
Q 14.984375 11.71875 18.140625 8.90625 
Q 21.296875 6.109375 26.703125 6.109375 
Q 34.1875 6.109375 38.703125 11.40625 
Q 43.21875 16.703125 43.21875 25.484375 
L 43.21875 27.484375 
z
M 52.203125 31.203125 
L 52.203125 0 
L 43.21875 0 
L 43.21875 8.296875 
Q 40.140625 3.328125 35.546875 0.953125 
Q 30.953125 -1.421875 24.3125 -1.421875 
Q 15.921875 -1.421875 10.953125 3.296875 
Q 6 8.015625 6 15.921875 
Q 6 25.140625 12.171875 29.828125 
Q 18.359375 34.515625 30.609375 34.515625 
L 43.21875 34.515625 
L 43.21875 35.40625 
Q 43.21875 41.609375 39.140625 45 
Q 35.0625 48.390625 27.6875 48.390625 
Q 23 48.390625 18.546875 47.265625 
Q 14.109375 46.140625 10.015625 43.890625 
L 10.015625 52.203125 
Q 14.9375 54.109375 19.578125 55.046875 
Q 24.21875 56 28.609375 56 
Q 40.484375 56 46.34375 49.84375 
Q 52.203125 43.703125 52.203125 31.203125 
z
" id="DejaVuSans-97"/>
      <path d="M 45.40625 27.984375 
Q 45.40625 37.75 41.375 43.109375 
Q 37.359375 48.484375 30.078125 48.484375 
Q 22.859375 48.484375 18.828125 43.109375 
Q 14.796875 37.75 14.796875 27.984375 
Q 14.796875 18.265625 18.828125 12.890625 
Q 22.859375 7.515625 30.078125 7.515625 
Q 37.359375 7.515625 41.375 12.890625 
Q 45.40625 18.265625 45.40625 27.984375 
z
M 54.390625 6.78125 
Q 54.390625 -7.171875 48.1875 -13.984375 
Q 42 -20.796875 29.203125 -20.796875 
Q 24.46875 -20.796875 20.265625 -20.09375 
Q 16.0625 -19.390625 12.109375 -17.921875 
L 12.109375 -9.1875 
Q 16.0625 -11.328125 19.921875 -12.34375 
Q 23.78125 -13.375 27.78125 -13.375 
Q 36.625 -13.375 41.015625 -8.765625 
Q 45.40625 -4.15625 45.40625 5.171875 
L 45.40625 9.625 
Q 42.625 4.78125 38.28125 2.390625 
Q 33.9375 0 27.875 0 
Q 17.828125 0 11.671875 7.65625 
Q 5.515625 15.328125 5.515625 27.984375 
Q 5.515625 40.671875 11.671875 48.328125 
Q 17.828125 56 27.875 56 
Q 33.9375 56 38.28125 53.609375 
Q 42.625 51.21875 45.40625 46.390625 
L 45.40625 54.6875 
L 54.390625 54.6875 
z
" id="DejaVuSans-103"/>
      <path d="M 56.203125 29.59375 
L 56.203125 25.203125 
L 14.890625 25.203125 
Q 15.484375 15.921875 20.484375 11.0625 
Q 25.484375 6.203125 34.421875 6.203125 
Q 39.59375 6.203125 44.453125 7.46875 
Q 49.3125 8.734375 54.109375 11.28125 
L 54.109375 2.78125 
Q 49.265625 0.734375 44.1875 -0.34375 
Q 39.109375 -1.421875 33.890625 -1.421875 
Q 20.796875 -1.421875 13.15625 6.1875 
Q 5.515625 13.8125 5.515625 26.8125 
Q 5.515625 40.234375 12.765625 48.109375 
Q 20.015625 56 32.328125 56 
Q 43.359375 56 49.78125 48.890625 
Q 56.203125 41.796875 56.203125 29.59375 
z
M 47.21875 32.234375 
Q 47.125 39.59375 43.09375 43.984375 
Q 39.0625 48.390625 32.421875 48.390625 
Q 24.90625 48.390625 20.390625 44.140625 
Q 15.875 39.890625 15.1875 32.171875 
z
" id="DejaVuSans-101"/>
      <path id="DejaVuSans-32"/>
      <path d="M 19.671875 64.796875 
L 19.671875 8.109375 
L 31.59375 8.109375 
Q 46.6875 8.109375 53.6875 14.9375 
Q 60.6875 21.78125 60.6875 36.53125 
Q 60.6875 51.171875 53.6875 57.984375 
Q 46.6875 64.796875 31.59375 64.796875 
z
M 9.8125 72.90625 
L 30.078125 72.90625 
Q 51.265625 72.90625 61.171875 64.09375 
Q 71.09375 55.28125 71.09375 36.53125 
Q 71.09375 17.671875 61.125 8.828125 
Q 51.171875 0 30.078125 0 
L 9.8125 0 
z
" id="DejaVuSans-68"/>
      <path d="M 44.28125 53.078125 
L 44.28125 44.578125 
Q 40.484375 46.53125 36.375 47.5 
Q 32.28125 48.484375 27.875 48.484375 
Q 21.1875 48.484375 17.84375 46.4375 
Q 14.5 44.390625 14.5 40.28125 
Q 14.5 37.15625 16.890625 35.375 
Q 19.28125 33.59375 26.515625 31.984375 
L 29.59375 31.296875 
Q 39.15625 29.25 43.1875 25.515625 
Q 47.21875 21.78125 47.21875 15.09375 
Q 47.21875 7.46875 41.1875 3.015625 
Q 35.15625 -1.421875 24.609375 -1.421875 
Q 20.21875 -1.421875 15.453125 -0.5625 
Q 10.6875 0.296875 5.421875 2 
L 5.421875 11.28125 
Q 10.40625 8.6875 15.234375 7.390625 
Q 20.0625 6.109375 24.8125 6.109375 
Q 31.15625 6.109375 34.5625 8.28125 
Q 37.984375 10.453125 37.984375 14.40625 
Q 37.984375 18.0625 35.515625 20.015625 
Q 33.0625 21.96875 24.703125 23.78125 
L 21.578125 24.515625 
Q 13.234375 26.265625 9.515625 29.90625 
Q 5.8125 33.546875 5.8125 39.890625 
Q 5.8125 47.609375 11.28125 51.796875 
Q 16.75 56 26.8125 56 
Q 31.78125 56 36.171875 55.265625 
Q 40.578125 54.546875 44.28125 53.078125 
z
" id="DejaVuSans-115"/>
     </defs>
     <g transform="translate(196.221094 280.276563)scale(0.1 -0.1)">
      <use xlink:href="#DejaVuSans-73"/>
      <use x="29.492188" xlink:href="#DejaVuSans-109"/>
      <use x="126.904297" xlink:href="#DejaVuSans-97"/>
      <use x="188.183594" xlink:href="#DejaVuSans-103"/>
      <use x="251.660156" xlink:href="#DejaVuSans-101"/>
      <use x="313.183594" xlink:href="#DejaVuSans-32"/>
      <use x="344.970703" xlink:href="#DejaVuSans-73"/>
      <use x="374.462891" xlink:href="#DejaVuSans-68"/>
      <use x="451.464844" xlink:href="#DejaVuSans-115"/>
     </g>
    </g>
   </g>
   <g id="matplotlib.axis_2">
    <g id="ytick_1">
     <g id="line2d_7">
      <defs>
       <path d="M 0 0 
L -3.5 0 
" id="m146f50e7cd" style="stroke:#000000;stroke-width:0.8;"/>
      </defs>
      <g>
       <use style="stroke:#000000;stroke-width:0.8;" x="54" xlink:href="#m146f50e7cd" y="244.703675"/>
      </g>
     </g>
     <g id="text_8">
      <!-- 0.075 -->
      <defs>
       <path d="M 10.6875 12.40625 
L 21 12.40625 
L 21 0 
L 10.6875 0 
z
" id="DejaVuSans-46"/>
       <path d="M 8.203125 72.90625 
L 55.078125 72.90625 
L 55.078125 68.703125 
L 28.609375 0 
L 18.3125 0 
L 43.21875 64.59375 
L 8.203125 64.59375 
z
" id="DejaVuSans-55"/>
      </defs>
      <g transform="translate(18.371875 248.502893)scale(0.1 -0.1)">
       <use xlink:href="#DejaVuSans-48"/>
       <use x="63.623047" xlink:href="#DejaVuSans-46"/>
       <use x="95.410156" xlink:href="#DejaVuSans-48"/>
       <use x="159.033203" xlink:href="#DejaVuSans-55"/>
       <use x="222.65625" xlink:href="#DejaVuSans-53"/>
      </g>
     </g>
    </g>
    <g id="ytick_2">
     <g id="line2d_8">
      <g>
       <use style="stroke:#000000;stroke-width:0.8;" x="54" xlink:href="#m146f50e7cd" y="218.510518"/>
      </g>
     </g>
     <g id="text_9">
      <!-- 0.100 -->
      <g transform="translate(18.371875 222.309737)scale(0.1 -0.1)">
       <use xlink:href="#DejaVuSans-48"/>
       <use x="63.623047" xlink:href="#DejaVuSans-46"/>
       <use x="95.410156" xlink:href="#DejaVuSans-49"/>
       <use x="159.033203" xlink:href="#DejaVuSans-48"/>
       <use x="222.65625" xlink:href="#DejaVuSans-48"/>
      </g>
     </g>
    </g>
    <g id="ytick_3">
     <g id="line2d_9">
      <g>
       <use style="stroke:#000000;stroke-width:0.8;" x="54" xlink:href="#m146f50e7cd" y="192.317362"/>
      </g>
     </g>
     <g id="text_10">
      <!-- 0.125 -->
      <g transform="translate(18.371875 196.116581)scale(0.1 -0.1)">
       <use xlink:href="#DejaVuSans-48"/>
       <use x="63.623047" xlink:href="#DejaVuSans-46"/>
       <use x="95.410156" xlink:href="#DejaVuSans-49"/>
       <use x="159.033203" xlink:href="#DejaVuSans-50"/>
       <use x="222.65625" xlink:href="#DejaVuSans-53"/>
      </g>
     </g>
    </g>
    <g id="ytick_4">
     <g id="line2d_10">
      <g>
       <use style="stroke:#000000;stroke-width:0.8;" x="54" xlink:href="#m146f50e7cd" y="166.124205"/>
      </g>
     </g>
     <g id="text_11">
      <!-- 0.150 -->
      <g transform="translate(18.371875 169.923424)scale(0.1 -0.1)">
       <use xlink:href="#DejaVuSans-48"/>
       <use x="63.623047" xlink:href="#DejaVuSans-46"/>
       <use x="95.410156" xlink:href="#DejaVuSans-49"/>
       <use x="159.033203" xlink:href="#DejaVuSans-53"/>
       <use x="222.65625" xlink:href="#DejaVuSans-48"/>
      </g>
     </g>
    </g>
    <g id="ytick_5">
     <g id="line2d_11">
      <g>
       <use style="stroke:#000000;stroke-width:0.8;" x="54" xlink:href="#m146f50e7cd" y="139.931049"/>
      </g>
     </g>
     <g id="text_12">
      <!-- 0.175 -->
      <g transform="translate(18.371875 143.730268)scale(0.1 -0.1)">
       <use xlink:href="#DejaVuSans-48"/>
       <use x="63.623047" xlink:href="#DejaVuSans-46"/>
       <use x="95.410156" xlink:href="#DejaVuSans-49"/>
       <use x="159.033203" xlink:href="#DejaVuSans-55"/>
       <use x="222.65625" xlink:href="#DejaVuSans-53"/>
      </g>
     </g>
    </g>
    <g id="ytick_6">
     <g id="line2d_12">
      <g>
       <use style="stroke:#000000;stroke-width:0.8;" x="54" xlink:href="#m146f50e7cd" y="113.737893"/>
      </g>
     </g>
     <g id="text_13">
      <!-- 0.200 -->
      <g transform="translate(18.371875 117.537111)scale(0.1 -0.1)">
       <use xlink:href="#DejaVuSans-48"/>
       <use x="63.623047" xlink:href="#DejaVuSans-46"/>
       <use x="95.410156" xlink:href="#DejaVuSans-50"/>
       <use x="159.033203" xlink:href="#DejaVuSans-48"/>
       <use x="222.65625" xlink:href="#DejaVuSans-48"/>
      </g>
     </g>
    </g>
    <g id="ytick_7">
     <g id="line2d_13">
      <g>
       <use style="stroke:#000000;stroke-width:0.8;" x="54" xlink:href="#m146f50e7cd" y="87.544736"/>
      </g>
     </g>
     <g id="text_14">
      <!-- 0.225 -->
      <g transform="translate(18.371875 91.343955)scale(0.1 -0.1)">
       <use xlink:href="#DejaVuSans-48"/>
       <use x="63.623047" xlink:href="#DejaVuSans-46"/>
       <use x="95.410156" xlink:href="#DejaVuSans-50"/>
       <use x="159.033203" xlink:href="#DejaVuSans-50"/>
       <use x="222.65625" xlink:href="#DejaVuSans-53"/>
      </g>
     </g>
    </g>
    <g id="ytick_8">
     <g id="line2d_14">
      <g>
       <use style="stroke:#000000;stroke-width:0.8;" x="54" xlink:href="#m146f50e7cd" y="61.35158"/>
      </g>
     </g>
     <g id="text_15">
      <!-- 0.250 -->
      <g transform="translate(18.371875 65.150798)scale(0.1 -0.1)">
       <use xlink:href="#DejaVuSans-48"/>
       <use x="63.623047" xlink:href="#DejaVuSans-46"/>
       <use x="95.410156" xlink:href="#DejaVuSans-50"/>
       <use x="159.033203" xlink:href="#DejaVuSans-53"/>
       <use x="222.65625" xlink:href="#DejaVuSans-48"/>
      </g>
     </g>
    </g>
    <g id="ytick_9">
     <g id="line2d_15">
      <g>
       <use style="stroke:#000000;stroke-width:0.8;" x="54" xlink:href="#m146f50e7cd" y="35.158423"/>
      </g>
     </g>
     <g id="text_16">
      <!-- 0.275 -->
      <g transform="translate(18.371875 38.957642)scale(0.1 -0.1)">
       <use xlink:href="#DejaVuSans-48"/>
       <use x="63.623047" xlink:href="#DejaVuSans-46"/>
       <use x="95.410156" xlink:href="#DejaVuSans-50"/>
       <use x="159.033203" xlink:href="#DejaVuSans-55"/>
       <use x="222.65625" xlink:href="#DejaVuSans-53"/>
      </g>
     </g>
    </g>
    <g id="text_17">
     <!-- Similarity score -->
     <defs>
      <path d="M 53.515625 70.515625 
L 53.515625 60.890625 
Q 47.90625 63.578125 42.921875 64.890625 
Q 37.9375 66.21875 33.296875 66.21875 
Q 25.25 66.21875 20.875 63.09375 
Q 16.5 59.96875 16.5 54.203125 
Q 16.5 49.359375 19.40625 46.890625 
Q 22.3125 44.4375 30.421875 42.921875 
L 36.375 41.703125 
Q 47.40625 39.59375 52.65625 34.296875 
Q 57.90625 29 57.90625 20.125 
Q 57.90625 9.515625 50.796875 4.046875 
Q 43.703125 -1.421875 29.984375 -1.421875 
Q 24.8125 -1.421875 18.96875 -0.25 
Q 13.140625 0.921875 6.890625 3.21875 
L 6.890625 13.375 
Q 12.890625 10.015625 18.65625 8.296875 
Q 24.421875 6.59375 29.984375 6.59375 
Q 38.421875 6.59375 43.015625 9.90625 
Q 47.609375 13.234375 47.609375 19.390625 
Q 47.609375 24.75 44.3125 27.78125 
Q 41.015625 30.8125 33.5 32.328125 
L 27.484375 33.5 
Q 16.453125 35.6875 11.515625 40.375 
Q 6.59375 45.0625 6.59375 53.421875 
Q 6.59375 63.09375 13.40625 68.65625 
Q 20.21875 74.21875 32.171875 74.21875 
Q 37.3125 74.21875 42.625 73.28125 
Q 47.953125 72.359375 53.515625 70.515625 
z
" id="DejaVuSans-83"/>
      <path d="M 9.421875 54.6875 
L 18.40625 54.6875 
L 18.40625 0 
L 9.421875 0 
z
M 9.421875 75.984375 
L 18.40625 75.984375 
L 18.40625 64.59375 
L 9.421875 64.59375 
z
" id="DejaVuSans-105"/>
      <path d="M 9.421875 75.984375 
L 18.40625 75.984375 
L 18.40625 0 
L 9.421875 0 
z
" id="DejaVuSans-108"/>
      <path d="M 41.109375 46.296875 
Q 39.59375 47.171875 37.8125 47.578125 
Q 36.03125 48 33.890625 48 
Q 26.265625 48 22.1875 43.046875 
Q 18.109375 38.09375 18.109375 28.8125 
L 18.109375 0 
L 9.078125 0 
L 9.078125 54.6875 
L 18.109375 54.6875 
L 18.109375 46.1875 
Q 20.953125 51.171875 25.484375 53.578125 
Q 30.03125 56 36.53125 56 
Q 37.453125 56 38.578125 55.875 
Q 39.703125 55.765625 41.0625 55.515625 
z
" id="DejaVuSans-114"/>
      <path d="M 18.3125 70.21875 
L 18.3125 54.6875 
L 36.8125 54.6875 
L 36.8125 47.703125 
L 18.3125 47.703125 
L 18.3125 18.015625 
Q 18.3125 11.328125 20.140625 9.421875 
Q 21.96875 7.515625 27.59375 7.515625 
L 36.8125 7.515625 
L 36.8125 0 
L 27.59375 0 
Q 17.1875 0 13.234375 3.875 
Q 9.28125 7.765625 9.28125 18.015625 
L 9.28125 47.703125 
L 2.6875 47.703125 
L 2.6875 54.6875 
L 9.28125 54.6875 
L 9.28125 70.21875 
z
" id="DejaVuSans-116"/>
      <path d="M 32.171875 -5.078125 
Q 28.375 -14.84375 24.75 -17.8125 
Q 21.140625 -20.796875 15.09375 -20.796875 
L 7.90625 -20.796875 
L 7.90625 -13.28125 
L 13.1875 -13.28125 
Q 16.890625 -13.28125 18.9375 -11.515625 
Q 21 -9.765625 23.484375 -3.21875 
L 25.09375 0.875 
L 2.984375 54.6875 
L 12.5 54.6875 
L 29.59375 11.921875 
L 46.6875 54.6875 
L 56.203125 54.6875 
z
" id="DejaVuSans-121"/>
      <path d="M 48.78125 52.59375 
L 48.78125 44.1875 
Q 44.96875 46.296875 41.140625 47.34375 
Q 37.3125 48.390625 33.40625 48.390625 
Q 24.65625 48.390625 19.8125 42.84375 
Q 14.984375 37.3125 14.984375 27.296875 
Q 14.984375 17.28125 19.8125 11.734375 
Q 24.65625 6.203125 33.40625 6.203125 
Q 37.3125 6.203125 41.140625 7.25 
Q 44.96875 8.296875 48.78125 10.40625 
L 48.78125 2.09375 
Q 45.015625 0.34375 40.984375 -0.53125 
Q 36.96875 -1.421875 32.421875 -1.421875 
Q 20.0625 -1.421875 12.78125 6.34375 
Q 5.515625 14.109375 5.515625 27.296875 
Q 5.515625 40.671875 12.859375 48.328125 
Q 20.21875 56 33.015625 56 
Q 37.15625 56 41.109375 55.140625 
Q 45.0625 54.296875 48.78125 52.59375 
z
" id="DejaVuSans-99"/>
      <path d="M 30.609375 48.390625 
Q 23.390625 48.390625 19.1875 42.75 
Q 14.984375 37.109375 14.984375 27.296875 
Q 14.984375 17.484375 19.15625 11.84375 
Q 23.34375 6.203125 30.609375 6.203125 
Q 37.796875 6.203125 41.984375 11.859375 
Q 46.1875 17.53125 46.1875 27.296875 
Q 46.1875 37.015625 41.984375 42.703125 
Q 37.796875 48.390625 30.609375 48.390625 
z
M 30.609375 56 
Q 42.328125 56 49.015625 48.375 
Q 55.71875 40.765625 55.71875 27.296875 
Q 55.71875 13.875 49.015625 6.21875 
Q 42.328125 -1.421875 30.609375 -1.421875 
Q 18.84375 -1.421875 12.171875 6.21875 
Q 5.515625 13.875 5.515625 27.296875 
Q 5.515625 40.765625 12.171875 48.375 
Q 18.84375 56 30.609375 56 
z
" id="DejaVuSans-111"/>
     </defs>
     <g transform="translate(12.292187 182.052656)rotate(-90)scale(0.1 -0.1)">
      <use xlink:href="#DejaVuSans-83"/>
      <use x="63.476562" xlink:href="#DejaVuSans-105"/>
      <use x="91.259766" xlink:href="#DejaVuSans-109"/>
      <use x="188.671875" xlink:href="#DejaVuSans-105"/>
      <use x="216.455078" xlink:href="#DejaVuSans-108"/>
      <use x="244.238281" xlink:href="#DejaVuSans-97"/>
      <use x="305.517578" xlink:href="#DejaVuSans-114"/>
      <use x="346.630859" xlink:href="#DejaVuSans-105"/>
      <use x="374.414062" xlink:href="#DejaVuSans-116"/>
      <use x="413.623047" xlink:href="#DejaVuSans-121"/>
      <use x="472.802734" xlink:href="#DejaVuSans-32"/>
      <use x="504.589844" xlink:href="#DejaVuSans-115"/>
      <use x="556.689453" xlink:href="#DejaVuSans-99"/>
      <use x="611.669922" xlink:href="#DejaVuSans-111"/>
      <use x="672.851562" xlink:href="#DejaVuSans-114"/>
      <use x="713.933594" xlink:href="#DejaVuSans-101"/>
     </g>
    </g>
   </g>
   <g id="line2d_16">
    <path clip-path="url(#p6196c0189a)" d="M 69.218182 192.39099 
L 75.429685 212.977652 
L 81.641187 218.737934 
L 87.85269 220.41544 
L 94.064193 222.619653 
L 100.275696 222.789952 
L 106.487199 223.178621 
L 112.698701 224.603981 
L 118.910204 226.570956 
L 125.121707 227.106764 
L 131.33321 227.910643 
L 137.544712 230.25642 
L 143.756215 230.441239 
L 149.967718 231.518303 
L 156.179221 231.909033 
L 162.390724 232.488422 
L 168.602226 233.31284 
L 174.813729 233.412657 
L 181.025232 233.495153 
L 187.236735 234.091029 
L 193.448237 234.372176 
L 199.65974 234.610139 
L 205.871243 234.651691 
L 212.082746 234.843504 
L 218.294249 235.129686 
L 224.505751 235.197272 
L 230.717254 235.353052 
L 236.928757 235.402247 
L 243.14026 235.837487 
L 249.351763 236.228857 
L 255.563265 236.418422 
L 261.774768 237.079628 
L 267.986271 237.084078 
L 274.197774 237.12154 
L 280.409276 237.451124 
L 286.620779 237.462162 
L 292.832282 237.643647 
L 299.043785 238.478369 
L 305.255288 238.897716 
L 311.46679 239.441338 
L 317.678293 239.455631 
L 323.889796 239.485482 
L 330.101299 239.588039 
L 336.312801 240.436851 
L 342.524304 240.93504 
L 348.735807 241.297645 
L 354.94731 241.559456 
L 361.158813 241.770301 
L 367.370315 241.770308 
L 373.581818 242.116364 
" style="fill:none;stroke:#1f77b4;stroke-linecap:square;stroke-width:1.5;"/>
   </g>
   <g id="line2d_17">
    <path clip-path="url(#p6196c0189a)" d="M 69.218182 44.443636 
L 75.429685 192.075152 
L 81.641187 193.841532 
L 87.85269 195.902368 
L 94.064193 196.335025 
L 100.275696 196.403298 
L 106.487199 197.044856 
L 112.698701 198.970044 
L 118.910204 199.480341 
L 125.121707 199.856396 
L 131.33321 200.074524 
L 137.544712 200.222513 
L 143.756215 201.095094 
L 149.967718 201.25644 
L 156.179221 201.897241 
L 162.390724 202.75716 
L 168.602226 203.321148 
L 174.813729 203.609703 
L 181.025232 203.87128 
L 187.236735 204.160421 
L 193.448237 204.969741 
L 199.65974 206.698034 
L 205.871243 208.084238 
L 212.082746 208.357189 
L 218.294249 209.076769 
L 224.505751 209.238599 
L 230.717254 209.761675 
L 236.928757 210.177408 
L 243.14026 210.680796 
L 249.351763 210.861236 
L 255.563265 210.989312 
L 261.774768 212.443929 
L 267.986271 212.886648 
L 274.197774 213.898008 
L 280.409276 214.767326 
L 286.620779 215.107753 
L 292.832282 215.247827 
L 299.043785 215.456455 
L 305.255288 215.826233 
L 311.46679 216.277749 
L 317.678293 216.277749 
L 323.889796 216.293088 
L 330.101299 216.34699 
L 336.312801 216.709095 
L 342.524304 217.044058 
L 348.735807 217.171618 
L 354.94731 218.269891 
L 361.158813 218.434516 
L 367.370315 218.807783 
L 373.581818 218.884534 
" style="fill:none;stroke:#ff7f0e;stroke-linecap:square;stroke-width:1.5;"/>
   </g>
   <g id="line2d_18">
    <path clip-path="url(#p6196c0189a)" d="M 69.218182 147.096787 
L 75.429685 149.680442 
L 81.641187 153.718714 
L 87.85269 155.424814 
L 94.064193 161.534906 
L 100.275696 164.586368 
L 106.487199 166.163886 
L 112.698701 174.63041 
L 118.910204 175.056626 
L 125.121707 176.180684 
L 131.33321 179.372392 
L 137.544712 179.735145 
L 143.756215 180.759892 
L 149.967718 182.253477 
L 156.179221 182.641303 
L 162.390724 182.850633 
L 168.602226 184.896287 
L 174.813729 185.034503 
L 181.025232 186.852716 
L 187.236735 188.869642 
L 193.448237 189.054321 
L 199.65974 189.1178 
L 205.871243 189.429407 
L 212.082746 189.63421 
L 218.294249 190.504239 
L 224.505751 191.604331 
L 230.717254 192.444111 
L 236.928757 194.467977 
L 243.14026 195.160368 
L 249.351763 195.734114 
L 255.563265 196.378357 
L 261.774768 197.065261 
L 267.986271 197.508152 
L 274.197774 197.508152 
L 280.409276 197.508152 
L 286.620779 197.997521 
L 292.832282 198.748997 
L 299.043785 198.955002 
L 305.255288 199.390703 
L 311.46679 199.395512 
L 317.678293 200.827335 
L 323.889796 201.437239 
L 330.101299 201.808992 
L 336.312801 202.047049 
L 342.524304 202.157444 
L 348.735807 202.157444 
L 354.94731 202.500275 
L 361.158813 202.619756 
L 367.370315 202.627836 
L 373.581818 203.482299 
" style="fill:none;stroke:#2ca02c;stroke-linecap:square;stroke-width:1.5;"/>
   </g>
   <g id="line2d_19">
    <path clip-path="url(#p6196c0189a)" d="M 69.218182 122.136094 
L 75.429685 156.193207 
L 81.641187 165.190488 
L 87.85269 167.735392 
L 94.064193 173.572283 
L 100.275696 180.053699 
L 106.487199 180.568812 
L 112.698701 180.568859 
L 118.910204 182.10338 
L 125.121707 188.429546 
L 131.33321 188.569105 
L 137.544712 190.711508 
L 143.756215 190.944553 
L 149.967718 191.92977 
L 156.179221 192.65967 
L 162.390724 192.979177 
L 168.602226 193.163285 
L 174.813729 193.513532 
L 181.025232 194.226876 
L 187.236735 195.571808 
L 193.448237 196.704179 
L 199.65974 197.294115 
L 205.871243 197.876025 
L 212.082746 197.919006 
L 218.294249 198.931872 
L 224.505751 199.710241 
L 230.717254 199.933669 
L 236.928757 200.671485 
L 243.14026 201.209252 
L 249.351763 201.259086 
L 255.563265 201.839967 
L 261.774768 202.313801 
L 267.986271 203.303475 
L 274.197774 203.425493 
L 280.409276 204.192855 
L 286.620779 204.576771 
L 292.832282 204.988585 
L 299.043785 205.310527 
L 305.255288 205.351205 
L 311.46679 205.400985 
L 317.678293 205.695637 
L 323.889796 205.861486 
L 330.101299 206.327249 
L 336.312801 206.331597 
L 342.524304 206.368989 
L 348.735807 206.621589 
L 354.94731 207.38383 
L 361.158813 207.404711 
L 367.370315 207.45375 
L 373.581818 207.518533 
" style="fill:none;stroke:#d62728;stroke-linecap:square;stroke-width:1.5;"/>
   </g>
   <g id="line2d_20">
    <path clip-path="url(#p6196c0189a)" d="M 69.218182 176.807644 
L 75.429685 178.525594 
L 81.641187 181.234397 
L 87.85269 181.851178 
L 94.064193 184.242505 
L 100.275696 184.441265 
L 106.487199 184.464481 
L 112.698701 185.954616 
L 118.910204 189.476853 
L 125.121707 189.476853 
L 131.33321 189.566796 
L 137.544712 190.507002 
L 143.756215 191.651324 
L 149.967718 191.9661 
L 156.179221 193.754353 
L 162.390724 193.919492 
L 168.602226 194.474183 
L 174.813729 196.469174 
L 181.025232 199.31884 
L 187.236735 199.455721 
L 193.448237 199.965495 
L 199.65974 200.131032 
L 205.871243 200.139229 
L 212.082746 201.178886 
L 218.294249 201.20125 
L 224.505751 201.212226 
L 230.717254 201.313269 
L 236.928757 201.395054 
L 243.14026 202.388678 
L 249.351763 202.535809 
L 255.563265 203.182823 
L 261.774768 203.611507 
L 267.986271 204.480005 
L 274.197774 205.317076 
L 280.409276 205.382133 
L 286.620779 206.243965 
L 292.832282 206.312246 
L 299.043785 206.417411 
L 305.255288 206.881909 
L 311.46679 207.571576 
L 317.678293 207.714671 
L 323.889796 208.043428 
L 330.101299 208.606104 
L 336.312801 208.633309 
L 342.524304 208.963275 
L 348.735807 209.621874 
L 354.94731 211.589598 
L 361.158813 211.82586 
L 367.370315 212.292013 
L 373.581818 213.099913 
" style="fill:none;stroke:#9467bd;stroke-linecap:square;stroke-width:1.5;"/>
   </g>
   <g id="line2d_21">
    <path clip-path="url(#p6196c0189a)" d="M 69.218182 132.407185 
L 75.429685 145.727538 
L 81.641187 163.738025 
L 87.85269 168.613805 
L 94.064193 173.093422 
L 100.275696 175.217839 
L 106.487199 175.75556 
L 112.698701 176.292249 
L 118.910204 177.213955 
L 125.121707 180.463429 
L 131.33321 183.17982 
L 137.544712 184.60432 
L 143.756215 189.20843 
L 149.967718 189.20843 
L 156.179221 189.66111 
L 162.390724 191.094479 
L 168.602226 191.933392 
L 174.813729 192.895955 
L 181.025232 194.121399 
L 187.236735 195.10724 
L 193.448237 195.888926 
L 199.65974 196.948184 
L 205.871243 197.312974 
L 212.082746 197.347173 
L 218.294249 197.777933 
L 224.505751 198.534554 
L 230.717254 199.058293 
L 236.928757 199.479053 
L 243.14026 199.53354 
L 249.351763 200.062674 
L 255.563265 200.381837 
L 261.774768 200.697268 
L 267.986271 201.646022 
L 274.197774 201.646022 
L 280.409276 202.319289 
L 286.620779 202.577978 
L 292.832282 202.953532 
L 299.043785 203.112731 
L 305.255288 203.329782 
L 311.46679 203.54243 
L 317.678293 203.580977 
L 323.889796 204.222691 
L 330.101299 205.38129 
L 336.312801 205.486017 
L 342.524304 205.506751 
L 348.735807 205.564134 
L 354.94731 205.577818 
L 361.158813 205.581815 
L 367.370315 205.826655 
L 373.581818 206.020498 
" style="fill:none;stroke:#8c564b;stroke-linecap:square;stroke-width:1.5;"/>
   </g>
   <g id="line2d_22">
    <path clip-path="url(#p6196c0189a)" d="M 69.218182 153.249656 
L 75.429685 186.912495 
L 81.641187 187.098298 
L 87.85269 188.628853 
L 94.064193 188.682091 
L 100.275696 190.632182 
L 106.487199 192.112934 
L 112.698701 194.455105 
L 118.910204 196.164476 
L 125.121707 197.419848 
L 131.33321 197.884948 
L 137.544712 198.043905 
L 143.756215 200.959852 
L 149.967718 202.317181 
L 156.179221 202.317181 
L 162.390724 202.382574 
L 168.602226 203.501182 
L 174.813729 203.502712 
L 181.025232 203.946329 
L 187.236735 204.491277 
L 193.448237 204.963793 
L 199.65974 206.826454 
L 205.871243 206.930596 
L 212.082746 207.094525 
L 218.294249 207.94258 
L 224.505751 208.884152 
L 230.717254 209.048339 
L 236.928757 209.192863 
L 243.14026 209.27489 
L 249.351763 209.354521 
L 255.563265 209.537255 
L 261.774768 209.53731 
L 267.986271 209.832055 
L 274.197774 209.972855 
L 280.409276 211.031957 
L 286.620779 211.132016 
L 292.832282 211.197526 
L 299.043785 211.403991 
L 305.255288 211.457487 
L 311.46679 211.50238 
L 317.678293 211.645834 
L 323.889796 211.732373 
L 330.101299 212.106039 
L 336.312801 212.106039 
L 342.524304 212.106039 
L 348.735807 212.273575 
L 354.94731 212.294933 
L 361.158813 212.380363 
L 367.370315 212.463359 
L 373.581818 212.674141 
" style="fill:none;stroke:#e377c2;stroke-linecap:square;stroke-width:1.5;"/>
   </g>
   <g id="line2d_23">
    <path clip-path="url(#p6196c0189a)" d="M 69.218182 144.10028 
L 75.429685 154.329421 
L 81.641187 156.581673 
L 87.85269 162.833399 
L 94.064193 165.005185 
L 100.275696 166.430982 
L 106.487199 169.358295 
L 112.698701 171.082787 
L 118.910204 171.967366 
L 125.121707 175.11486 
L 131.33321 175.413009 
L 137.544712 175.683462 
L 143.756215 176.403081 
L 149.967718 178.163685 
L 156.179221 178.798748 
L 162.390724 180.102581 
L 168.602226 181.820016 
L 174.813729 183.84795 
L 181.025232 184.446386 
L 187.236735 184.884952 
L 193.448237 185.134547 
L 199.65974 185.359895 
L 205.871243 188.743666 
L 212.082746 188.743666 
L 218.294249 188.754033 
L 224.505751 189.555336 
L 230.717254 190.230898 
L 236.928757 190.782981 
L 243.14026 191.427786 
L 249.351763 195.567265 
L 255.563265 195.738087 
L 261.774768 196.121316 
L 267.986271 197.879429 
L 274.197774 197.939169 
L 280.409276 198.809026 
L 286.620779 199.466821 
L 292.832282 202.306471 
L 299.043785 204.110422 
L 305.255288 204.898494 
L 311.46679 208.966655 
L 317.678293 209.614076 
L 323.889796 209.897533 
L 330.101299 210.159149 
L 336.312801 210.363085 
L 342.524304 211.338591 
L 348.735807 211.573081 
L 354.94731 211.670236 
L 361.158813 211.703686 
L 367.370315 212.091847 
L 373.581818 212.74257 
" style="fill:none;stroke:#7f7f7f;stroke-linecap:square;stroke-width:1.5;"/>
   </g>
   <g id="line2d_24">
    <path clip-path="url(#p6196c0189a)" d="M 69.218182 61.164169 
L 75.429685 61.164169 
L 81.641187 94.197971 
L 87.85269 102.996851 
L 94.064193 114.74782 
L 100.275696 120.989133 
L 106.487199 120.989133 
L 112.698701 122.090147 
L 118.910204 129.654137 
L 125.121707 133.87309 
L 131.33321 134.340602 
L 137.544712 139.341561 
L 143.756215 140.048394 
L 149.967718 144.255997 
L 156.179221 144.518441 
L 162.390724 144.728005 
L 168.602226 144.728005 
L 174.813729 145.097019 
L 181.025232 146.417713 
L 187.236735 147.17691 
L 193.448237 147.5855 
L 199.65974 147.833549 
L 205.871243 147.943007 
L 212.082746 148.5996 
L 218.294249 148.822778 
L 224.505751 150.360468 
L 230.717254 150.364372 
L 236.928757 150.96554 
L 243.14026 150.98326 
L 249.351763 151.598074 
L 255.563265 152.248422 
L 261.774768 152.4795 
L 267.986271 152.555813 
L 274.197774 153.255292 
L 280.409276 154.743133 
L 286.620779 154.767941 
L 292.832282 155.429514 
L 299.043785 156.514368 
L 305.255288 156.919165 
L 311.46679 157.205105 
L 317.678293 157.644561 
L 323.889796 157.673319 
L 330.101299 157.98708 
L 336.312801 158.804995 
L 342.524304 159.564644 
L 348.735807 160.000228 
L 354.94731 160.070437 
L 361.158813 160.660084 
L 367.370315 160.955657 
L 373.581818 161.05058 
" style="fill:none;stroke:#bcbd22;stroke-linecap:square;stroke-width:1.5;"/>
   </g>
   <g id="line2d_25">
    <path clip-path="url(#p6196c0189a)" d="M 69.218182 155.225382 
L 75.429685 170.983773 
L 81.641187 171.50941 
L 87.85269 172.583367 
L 94.064193 172.687876 
L 100.275696 173.461873 
L 106.487199 174.803629 
L 112.698701 175.08565 
L 118.910204 175.754748 
L 125.121707 176.646571 
L 131.33321 176.884675 
L 137.544712 177.004547 
L 143.756215 177.726274 
L 149.967718 180.946022 
L 156.179221 181.075027 
L 162.390724 182.571048 
L 168.602226 183.016577 
L 174.813729 184.45082 
L 181.025232 184.59578 
L 187.236735 184.60521 
L 193.448237 185.425248 
L 199.65974 185.729751 
L 205.871243 186.443953 
L 212.082746 186.709207 
L 218.294249 187.36199 
L 224.505751 187.738685 
L 230.717254 187.882865 
L 236.928757 188.606278 
L 243.14026 189.613242 
L 249.351763 189.641001 
L 255.563265 190.2748 
L 261.774768 190.738751 
L 267.986271 191.73716 
L 274.197774 192.088032 
L 280.409276 192.456624 
L 286.620779 192.516677 
L 292.832282 192.650467 
L 299.043785 192.794451 
L 305.255288 193.559394 
L 311.46679 194.357691 
L 317.678293 194.393654 
L 323.889796 195.09265 
L 330.101299 195.159697 
L 336.312801 195.35393 
L 342.524304 195.569123 
L 348.735807 195.611713 
L 354.94731 195.730406 
L 361.158813 196.15795 
L 367.370315 196.19051 
L 373.581818 196.511858 
" style="fill:none;stroke:#17becf;stroke-linecap:square;stroke-width:1.5;"/>
   </g>
   <g id="patch_3">
    <path d="M 54 252 
L 54 34.56 
" style="fill:none;stroke:#000000;stroke-linecap:square;stroke-linejoin:miter;stroke-width:0.8;"/>
   </g>
   <g id="patch_4">
    <path d="M 388.8 252 
L 388.8 34.56 
" style="fill:none;stroke:#000000;stroke-linecap:square;stroke-linejoin:miter;stroke-width:0.8;"/>
   </g>
   <g id="patch_5">
    <path d="M 54 252 
L 388.8 252 
" style="fill:none;stroke:#000000;stroke-linecap:square;stroke-linejoin:miter;stroke-width:0.8;"/>
   </g>
   <g id="patch_6">
    <path d="M 54 34.56 
L 388.8 34.56 
" style="fill:none;stroke:#000000;stroke-linecap:square;stroke-linejoin:miter;stroke-width:0.8;"/>
   </g>
  </g>
 </g>
 <defs>
  <clipPath id="p6196c0189a">
   <rect height="217.44" width="334.8" x="54" y="34.56"/>
  </clipPath>
 </defs>
</svg>
